HIERARCHY
ROOT mixamorig:Hips
{
	OFFSET 0.000000 102.625267 -0.521241
	CHANNELS 6 Xposition Yposition Zposition Xrotation Yrotation Zrotation
	JOINT mixamorig:Spine
	{
		OFFSET 0.000000 5.645721 -0.031929
		CHANNELS 3 Xrotation Yrotation Zrotation
		JOINT mixamorig:Spine1
		{
			OFFSET 0.000000 6.586685 -0.037251
			CHANNELS 3 Xrotation Yrotation Zrotation
			JOINT mixamorig:Spine2
			{
				OFFSET 0.000000 7.527618 -0.042572
				CHANNELS 3 Xrotation Yrotation Zrotation
				JOINT mixamorig:Neck
				{
					OFFSET 0.000000 8.468590 -0.047894
					CHANNELS 3 Xrotation Yrotation Zrotation
					JOINT mixamorig:Head
					{
						OFFSET 0.000000 5.998901 -1.158958
						CHANNELS 3 Xrotation Yrotation Zrotation
						JOINT mixamorig:HeadTop_End
						{
							OFFSET 0.000000 21.748810 -4.201760
							CHANNELS 3 Xrotation Yrotation Zrotation
							End Site
							{
								OFFSET 0.000000 22.150970 0.000000
							}
						}
					}
				}
				JOINT mixamorig:LeftShoulder
				{
					OFFSET 3.414614 7.343132 -0.058928
					CHANNELS 3 Xrotation Yrotation Zrotation
					JOINT mixamorig:LeftArm
					{
						OFFSET 6.829548 -2.246910 -0.022071
						CHANNELS 3 Xrotation Yrotation Zrotation
						JOINT mixamorig:LeftForeArm
						{
							OFFSET 24.198503 -0.424179 0.257802
							CHANNELS 3 Xrotation Yrotation Zrotation
							JOINT mixamorig:LeftHand
							{
								OFFSET 21.584717 -0.002335 0.669575
								CHANNELS 3 Xrotation Yrotation Zrotation
								JOINT mixamorig:LeftHandThumb1
								{
									OFFSET 2.193897 -1.259628 1.956942
									CHANNELS 3 Xrotation Yrotation Zrotation
									JOINT mixamorig:LeftHandThumb2
									{
										OFFSET 1.755203 -1.007660 1.565605
										CHANNELS 3 Xrotation Yrotation Zrotation
										JOINT mixamorig:LeftHandThumb3
										{
											OFFSET 2.535126 -0.998764 1.490660
											CHANNELS 3 Xrotation Yrotation Zrotation
											JOINT mixamorig:LeftHandThumb4
											{
												OFFSET 2.398251 -0.721657 1.023775
												CHANNELS 3 Xrotation Yrotation Zrotation
												End Site
												{
													OFFSET 2.205696 -0.773872 1.362551
												}
											}
										}
									}
								}
								JOINT mixamorig:LeftHandIndex1
								{
									OFFSET 7.166248 -0.069405 2.369028
									CHANNELS 3 Xrotation Yrotation Zrotation
									JOINT mixamorig:LeftHandIndex2
									{
										OFFSET 2.989986 -0.015724 0.245918
										CHANNELS 3 Xrotation Yrotation Zrotation
										JOINT mixamorig:LeftHandIndex3
										{
											OFFSET 2.739197 -0.058952 0.219132
											CHANNELS 3 Xrotation Yrotation Zrotation
											JOINT mixamorig:LeftHandIndex4
											{
												OFFSET 2.326500 -0.032570 0.188458
												CHANNELS 3 Xrotation Yrotation Zrotation
												End Site
												{
													OFFSET 2.326485 -0.032578 0.188548
												}
											}
										}
									}
								}
								JOINT mixamorig:LeftHandMiddle1
								{
									OFFSET 7.394897 0.286369 0.654762
									CHANNELS 3 Xrotation Yrotation Zrotation
									JOINT mixamorig:LeftHandMiddle2
									{
										OFFSET 3.376106 0.152466 -0.003692
										CHANNELS 3 Xrotation Yrotation Zrotation
										JOINT mixamorig:LeftHandMiddle3
										{
											OFFSET 3.185104 -0.185410 -0.047914
											CHANNELS 3 Xrotation Yrotation Zrotation
											JOINT mixamorig:LeftHandMiddle4
											{
												OFFSET 2.742905 0.223846 0.010354
												CHANNELS 3 Xrotation Yrotation Zrotation
												End Site
												{
													OFFSET 2.742889 0.224251 0.006757
												}
											}
										}
									}
								}
								JOINT mixamorig:LeftHandRing1
								{
									OFFSET 7.508747 0.282753 -1.072900
									CHANNELS 3 Xrotation Yrotation Zrotation
									JOINT mixamorig:LeftHandRing2
									{
										OFFSET 2.821857 0.317802 -0.177266
										CHANNELS 3 Xrotation Yrotation Zrotation
										JOINT mixamorig:LeftHandRing3
										{
											OFFSET 2.672325 0.088310 -0.196165
											CHANNELS 3 Xrotation Yrotation Zrotation
											JOINT mixamorig:LeftHandRing4
											{
												OFFSET 2.272652 -0.053627 -0.183955
												CHANNELS 3 Xrotation Yrotation Zrotation
												End Site
												{
													OFFSET 2.272919 -0.054016 -0.180438
												}
											}
										}
									}
								}
								JOINT mixamorig:LeftHandPinky1
								{
									OFFSET 7.285820 0.522377 -2.660948
									CHANNELS 3 Xrotation Yrotation Zrotation
									JOINT mixamorig:LeftHandPinky2
									{
										OFFSET 2.466278 0.082008 -0.249570
										CHANNELS 3 Xrotation Yrotation Zrotation
										JOINT mixamorig:LeftHandPinky3
										{
											OFFSET 1.940475 0.021858 -0.202004
											CHANNELS 3 Xrotation Yrotation Zrotation
											JOINT mixamorig:LeftHandPinky4
											{
												OFFSET 1.645287 0.153595 -0.153405
												CHANNELS 3 Xrotation Yrotation Zrotation
												End Site
												{
													OFFSET 1.645088 0.153801 -0.155289
												}
											}
										}
									}
								}
							}
						}
					}
				}
				JOINT mixamorig:RightShoulder
				{
					OFFSET -3.414604 7.343132 -0.036860
					CHANNELS 3 Xrotation Yrotation Zrotation
					JOINT mixamorig:RightArm
					{
						OFFSET -6.829551 -2.246986 0.022068
						CHANNELS 3 Xrotation Yrotation Zrotation
						JOINT mixamorig:RightForeArm
						{
							OFFSET -24.198494 -0.424141 0.158696
							CHANNELS 3 Xrotation Yrotation Zrotation
							JOINT mixamorig:RightHand
							{
								OFFSET -21.584698 -0.002243 0.686977
								CHANNELS 3 Xrotation Yrotation Zrotation
								JOINT mixamorig:RightHandThumb1
								{
									OFFSET -2.242882 -1.296806 1.978855
									CHANNELS 3 Xrotation Yrotation Zrotation
									JOINT mixamorig:RightHandThumb2
									{
										OFFSET -1.794239 -1.037361 1.583064
										CHANNELS 3 Xrotation Yrotation Zrotation
										JOINT mixamorig:RightHandThumb3
										{
											OFFSET -2.504150 -0.962166 1.471556
											CHANNELS 3 Xrotation Yrotation Zrotation
											JOINT mixamorig:RightHandThumb4
											{
												OFFSET -2.346046 -0.743172 0.992235
												CHANNELS 3 Xrotation Yrotation Zrotation
												End Site
												{
													OFFSET -2.157112 -0.792709 1.326359
												}
											}
										}
									}
								}
								JOINT mixamorig:RightHandIndex1
								{
									OFFSET -7.174488 -0.001839 2.366265
									CHANNELS 3 Xrotation Yrotation Zrotation
									JOINT mixamorig:RightHandIndex2
									{
										OFFSET -2.935219 -0.016853 0.287245
										CHANNELS 3 Xrotation Yrotation Zrotation
										JOINT mixamorig:RightHandIndex3
										{
											OFFSET -2.786827 -0.129890 0.255971
											CHANNELS 3 Xrotation Yrotation Zrotation
											JOINT mixamorig:RightHandIndex4
											{
												OFFSET -2.343559 0.168816 0.256164
												CHANNELS 3 Xrotation Yrotation Zrotation
												End Site
												{
													OFFSET -2.344208 0.169510 0.249690
												}
											}
										}
									}
								}
								JOINT mixamorig:RightHandMiddle1
								{
									OFFSET -7.274693 0.327965 0.656181
									CHANNELS 3 Xrotation Yrotation Zrotation
									JOINT mixamorig:RightHandMiddle2
									{
										OFFSET -3.309677 0.091591 0.032863
										CHANNELS 3 Xrotation Yrotation Zrotation
										JOINT mixamorig:RightHandMiddle3
										{
											OFFSET -3.186844 -0.122513 0.000971
											CHANNELS 3 Xrotation Yrotation Zrotation
											JOINT mixamorig:RightHandMiddle4
											{
												OFFSET -2.671951 -0.322540 -0.031001
												CHANNELS 3 Xrotation Yrotation Zrotation
												End Site
												{
													OFFSET -2.671928 -0.323486 -0.021820
												}
											}
										}
									}
								}
								JOINT mixamorig:RightHandRing1
								{
									OFFSET -7.453640 0.430428 -1.170334
									CHANNELS 3 Xrotation Yrotation Zrotation
									JOINT mixamorig:RightHandRing2
									{
										OFFSET -2.808174 0.165817 -0.117934
										CHANNELS 3 Xrotation Yrotation Zrotation
										JOINT mixamorig:RightHandRing3
										{
											OFFSET -2.730080 0.127754 -0.119542
											CHANNELS 3 Xrotation Yrotation Zrotation
											JOINT mixamorig:RightHandRing4
											{
												OFFSET -2.349426 0.078133 -0.107466
												CHANNELS 3 Xrotation Yrotation Zrotation
												End Site
												{
													OFFSET -2.349503 0.077988 -0.106043
												}
											}
										}
									}
								}
								JOINT mixamorig:RightHandPinky1
								{
									OFFSET -7.364456 0.463486 -2.604800
									CHANNELS 3 Xrotation Yrotation Zrotation
									JOINT mixamorig:RightHandPinky2
									{
										OFFSET -2.430134 0.174614 -0.251330
										CHANNELS 3 Xrotation Yrotation Zrotation
										JOINT mixamorig:RightHandPinky3
										{
											OFFSET -1.953583 0.007492 -0.220999
											CHANNELS 3 Xrotation Yrotation Zrotation
											JOINT mixamorig:RightHandPinky4
											{
												OFFSET -1.582039 0.276558 -0.139972
												CHANNELS 3 Xrotation Yrotation Zrotation
												End Site
												{
													OFFSET -1.581284 0.277252 -0.147002
												}
											}
										}
									}
								}
							}
						}
					}
				}
			}
		}
	}
	JOINT mixamorig:LeftUpLeg
	{
		OFFSET 6.620181 -8.816864 -0.447179
		CHANNELS 3 Xrotation Yrotation Zrotation
		JOINT mixamorig:LeftLeg
		{
			OFFSET 2.748989 -36.076775 0.650871
			CHANNELS 3 Xrotation Yrotation Zrotation
			JOINT mixamorig:LeftFoot
			{
				OFFSET 1.089303 -46.239017 1.019056
				CHANNELS 3 Xrotation Yrotation Zrotation
				JOINT mixamorig:LeftToeBase
				{
					OFFSET -0.371088 -10.380511 12.650617
					CHANNELS 3 Xrotation Yrotation Zrotation
					JOINT mixamorig:LeftToe_End
					{
						OFFSET -0.094684 -0.116785 6.663326
						CHANNELS 3 Xrotation Yrotation Zrotation
						End Site
						{
							OFFSET -0.094684 -0.116785 6.663326
						}
					}
				}
			}
		}
	}
	JOINT mixamorig:RightUpLeg
	{
		OFFSET -6.620174 -8.816818 -0.447182
		CHANNELS 3 Xrotation Yrotation Zrotation
		JOINT mixamorig:RightLeg
		{
			OFFSET -2.748991 -36.076790 0.753614
			CHANNELS 3 Xrotation Yrotation Zrotation
			JOINT mixamorig:RightFoot
			{
				OFFSET -1.089311 -46.239029 0.372114
				CHANNELS 3 Xrotation Yrotation Zrotation
				JOINT mixamorig:RightToeBase
				{
					OFFSET 0.371103 -10.380659 13.284531
					CHANNELS 3 Xrotation Yrotation Zrotation
					JOINT mixamorig:RightToe_End
					{
						OFFSET 0.094689 -0.116865 6.675873
						CHANNELS 3 Xrotation Yrotation Zrotation
						End Site
						{
							OFFSET 0.094687 -0.116865 6.675871
						}
					}
				}
			}
		}
	}
}
MOTION
Frames: 4
Frame Time: 0.016667
-5.411662 92.181564 3.933621 -7.455656 1.655973 -4.374702 18.679736 2.351087 4.020239 4.249573 0.142480 2.440813 4.223801 0.209872 2.459949 -4.013686 0.514613 0.977018 -8.083960 -0.221104 0.886426 0.000000 0.000000 -0.000000 0.036340 1.688037 2.798218 23.861309 -27.167899 -48.517477 -3.629374 -74.813951 -3.761267 -7.485827 -6.583399 11.738507 1.506949 22.492185 6.718859 2.055712 9.383614 -2.826505 -2.166241 5.545011 0.301959 0.000006 0.000003 -0.000000 -0.199752 -0.361514 2.499800 0.933059 2.113163 -9.072177 1.089852 2.276356 -10.427628 -0.000002 -0.000001 -0.000003 0.202860 -4.417352 -3.428036 0.020161 1.314148 -3.397659 0.410152 3.416312 -18.477567 0.000001 0.000002 -0.000001 -0.010125 -7.040153 -11.159316 -0.454803 1.771823 -6.208279 -0.493366 2.113512 -8.211000 -0.000002 0.000001 -0.000001 0.135588 -4.037154 -11.088658 -0.882883 -1.272013 -11.993644 -1.325370 3.598135 -16.874657 -0.000000 0.000001 -0.000000 0.779430 -2.086200 11.589223 31.456303 29.176837 22.008123 -3.100781 72.363969 3.253916 4.261459 9.847873 -19.107439 0.051876 -22.832330 -8.109925 3.325473 -11.428529 3.767105 -3.239142 -4.654625 -1.007305 0.000002 -0.000001 0.000001 -0.290782 -0.427588 -2.886980 0.606180 -1.306511 5.377518 1.734582 -2.456895 14.448898 -0.000003 -0.000003 0.000002 0.191941 3.670503 3.250126 0.107750 -1.451018 5.611796 0.165539 -1.524741 5.683842 0.000002 -0.000001 -0.000001 0.036717 5.500423 10.373841 -0.383388 -2.731238 12.577574 -0.374763 -2.874378 13.206661 -0.000001 -0.000000 -0.000000 -0.880674 7.264246 18.626942 -1.181626 -3.081077 13.052096 -1.895372 -5.402750 26.450094 -0.000001 -0.000003 -0.000001 -45.006217 -4.128218 2.627855 72.763282 12.470519 2.478673 4.263731 6.637863 4.952768 -7.923450 0.287831 -3.850807 0.000001 -0.000001 -0.000001 -23.431360 -15.845390 13.997032 51.531721 1.041501 -1.087867 -18.254201 3.411196 -14.894401 0.761916 -0.000001 0.000002 -0.000000 -0.000000 -0.000000 
-5.664217 92.261841 4.731185 -7.565395 -0.123189 -5.417849 19.041481 3.616723 4.037622 4.508323 0.324159 2.656659 4.479973 0.399558 2.676422 -2.410072 0.353749 0.877360 -9.344322 -0.914958 1.294837 0.000000 -0.000000 -0.000000 0.080215 1.743146 1.669223 28.022262 -24.580020 -47.390096 -3.500084 -74.282200 -3.636815 -10.712416 -6.049278 11.567135 1.506945 22.492182 6.718858 2.055713 9.383618 -2.826505 -2.166243 5.545005 0.301956 -0.000001 0.000005 -0.000001 -0.199755 -0.361511 2.499801 0.933061 2.113167 -9.072182 1.089860 2.276356 -10.427627 0.000004 0.000000 0.000002 0.202847 -4.417354 -3.428060 0.020159 1.314142 -3.397661 0.410149 3.416323 -18.477567 -0.000001 0.000004 0.000002 -0.010124 -7.040159 -11.159315 -0.454799 1.771836 -6.208278 -0.493372 2.113509 -8.210999 -0.000003 -0.000000 -0.000002 0.135583 -4.037162 -11.088687 -0.882882 -1.272009 -11.993646 -1.325367 3.598136 -16.874652 -0.000002 -0.000002 -0.000002 0.824767 -1.411931 13.285424 29.613293 30.590358 21.805570 -2.996267 71.790903 3.154659 4.451553 9.424114 -19.687481 0.051884 -22.832332 -8.109917 3.325476 -11.428535 3.767106 -3.239145 -4.654619 -1.007307 -0.000002 -0.000001 -0.000001 -0.290782 -0.427599 -2.886989 0.606186 -1.306512 5.377516 1.734582 -2.456896 14.448900 0.000001 0.000001 0.000002 0.191942 3.670495 3.250124 0.107752 -1.451006 5.611814 0.165533 -1.524727 5.683826 0.000001 0.000000 -0.000000 0.036718 5.500416 10.373837 -0.383367 -2.731244 12.577581 -0.374761 -2.874395 13.206641 -0.000001 0.000002 -0.000001 -0.880649 7.264220 18.626921 -1.181638 -3.081047 13.052124 -1.895379 -5.402747 26.450102 0.000000 -0.000000 0.000001 -44.697782 -3.669330 2.605328 66.996137 12.316155 3.297966 2.923656 4.544834 3.648150 -6.168552 0.119755 -2.522934 -0.000000 -0.000002 -0.000000 -22.338629 -14.369193 15.578266 51.277765 2.453273 -0.694786 -18.787953 3.518490 -15.417752 0.601821 0.000002 -0.000003 0.000000 0.000000 -0.000000 
-5.854755 92.315430 5.540123 -7.691863 -1.754056 -6.387845 19.380482 4.817020 4.092015 4.745561 0.498216 2.846007 4.715303 0.580480 2.865882 -0.888463 0.212831 0.660621 -10.548437 -1.619884 1.598331 0.000002 -0.000000 0.000000 0.073515 2.106834 1.012514 32.215079 -22.079425 -46.036913 -3.626395 -74.802155 -3.758419 -13.132662 -5.793546 11.159821 1.506947 22.492180 6.718855 2.055710 9.383620 -2.826510 -2.166244 5.545007 0.301959 0.000003 0.000004 -0.000004 -0.199737 -0.361509 2.499807 0.933055 2.113163 -9.072178 1.089858 2.276359 -10.427628 0.000005 -0.000003 0.000001 0.202865 -4.417383 -3.428072 0.020154 1.314155 -3.397651 0.410147 3.416316 -18.477564 0.000005 -0.000000 0.000000 -0.010111 -7.040163 -11.159325 -0.454793 1.771830 -6.208288 -0.493366 2.113509 -8.210997 -0.000001 -0.000000 0.000001 0.135599 -4.037159 -11.088659 -0.882880 -1.272032 -11.993668 -1.325364 3.598133 -16.874659 0.000002 0.000001 -0.000001 0.815369 -0.784516 14.388082 27.683144 31.239649 22.525240 -2.909130 71.285093 3.072147 4.288591 8.972805 -19.988181 0.051878 -22.832334 -8.109919 3.325476 -11.428534 3.767103 -3.239148 -4.654625 -1.007300 -0.000000 -0.000004 0.000002 -0.290777 -0.427610 -2.886997 0.606178 -1.306512 5.377519 1.734580 -2.456894 14.448896 0.000000 -0.000000 -0.000001 0.191946 3.670489 3.250112 0.107755 -1.450985 5.611820 0.165527 -1.524742 5.683836 0.000001 0.000003 -0.000001 0.036721 5.500414 10.373845 -0.383374 -2.731228 12.577582 -0.374764 -2.874394 13.206651 0.000000 -0.000001 0.000001 -0.880646 7.264209 18.626915 -1.181620 -3.081047 13.052115 -1.895382 -5.402760 26.450099 -0.000001 -0.000001 -0.000000 -43.942374 -2.955724 2.850251 60.635728 11.626105 3.818984 2.664854 2.393667 1.643131 -3.625905 0.001569 -0.293043 -0.000000 -0.000001 -0.000000 -21.425772 -12.829444 17.037572 51.052631 3.512633 -0.358954 -19.141069 3.576667 -15.721011 0.472797 -0.000000 0.000001 0.000000 0.000000 -0.000000 
-5.966661 92.328018 6.380482 -7.837563 -3.158304 -7.203982 19.699406 5.918540 4.205954 4.950116 0.656389 2.992830 4.918663 0.743332 3.012615 0.552006 0.103800 0.259726 -11.679613 -2.334161 1.750315 0.000001 0.000000 -0.000000 0.014801 2.865791 0.734335 36.281828 -19.642127 -44.551108 -3.954175 -76.006420 -4.075235 -14.355955 -5.847728 10.396517 1.506954 22.492180 6.718862 2.055717 9.383623 -2.826512 -2.166246 5.545011 0.301958 0.000002 0.000000 -0.000003 -0.199739 -0.361523 2.499800 0.933056 2.113169 -9.072183 1.089854 2.276358 -10.427628 0.000001 -0.000003 0.000001 0.202873 -4.417355 -3.428053 0.020135 1.314157 -3.397650 0.410147 3.416315 -18.477564 -0.000001 -0.000000 0.000000 -0.010109 -7.040150 -11.159314 -0.454785 1.771822 -6.208284 -0.493370 2.113510 -8.210996 0.000000 -0.000002 -0.000000 0.135591 -4.037153 -11.088676 -0.882879 -1.272019 -11.993658 -1.325360 3.598132 -16.874653 -0.000003 -0.000000 -0.000000 0.780097 -0.309000 14.850138 25.906868 31.135356 23.949553 -2.832882 70.818721 3.000157 3.727451 8.671613 -19.947234 0.051881 -22.832334 -8.109923 3.325476 -11.428533 3.767102 -3.239141 -4.654624 -1.007303 0.000002 0.000000 0.000002 -0.290761 -0.427616 -2.887012 0.606186 -1.306513 5.377518 1.734582 -2.456899 14.448895 0.000001 0.000000 -0.000002 0.191946 3.670480 3.250120 0.107752 -1.451001 5.611810 0.165550 -1.524746 5.683829 0.000000 0.000004 -0.000000 0.036729 5.500397 10.373832 -0.383372 -2.731222 12.577580 -0.374765 -2.874396 13.206654 0.000001 -0.000000 -0.000001 -0.880652 7.264211 18.626916 -1.181627 -3.081064 13.052106 -1.895382 -5.402748 26.450101 0.000001 -0.000002 -0.000001 -42.850059 -2.070534 3.399976 53.913275 10.784330 3.875874 3.848632 0.826438 -0.891239 -3.331933 0.000006 0.000006 0.000000 -0.000000 -0.000000 -20.919053 -11.384566 18.139176 51.114257 4.176409 -0.117263 -18.744966 3.350618 -14.813328 0.399245 0.000000 0.000003 -0.000000 0.000000 -0.000000 
